<svg id="Layer_1" data-name="Layer 1" xmlns="http://www.w3.org/2000/svg" viewBox="0 0 994.72 259.46"><defs><style>.cls-1{fill:#ed7203;}.cls-2{fill:#004f9e;}</style></defs><path class="cls-1" d="M624.86,491.23a116.82,116.82,0,0,0,15-11.94,154.45,154.45,0,0,0,11.87-12.51H633.48V349.68H607.07V492.91h15.12C623.09,492.36,624,491.82,624.86,491.23Z" transform="translate(-87.26 -285.38)"/><path class="cls-1" d="M956.78,349.72c.45,0,.86-.1,1.26-.1,18.08.05,36.18-.34,54.24.27,17.77.6,33.84,6.33,46.83,19.05a59.46,59.46,0,0,1,16.69,31.11c3.46,16.7,2.57,33.22-3.41,49.25-6.6,17.7-19.06,29.84-36.43,37a81.14,81.14,0,0,1-29.59,6.36c-16.39.32-32.78.23-49.17.32a2.84,2.84,0,0,1-.42-.1ZM983.35,376V466.7c6.53,0,13,.17,19.37,0a69.71,69.71,0,0,0,18.62-3c14.24-4.46,23.69-13.58,27.45-28.23a65.1,65.1,0,0,0,1.12-26.47,37.16,37.16,0,0,0-9.07-19.78c-6.42-7.05-14.68-10.56-23.85-12.17-11-1.94-22.17-1-33.26-1.14C983.63,375.83,983.54,375.9,983.35,376Z" transform="translate(-87.26 -285.38)"/><path class="cls-2" d="M378.88,321.26c.84-11.55,6.93-23.3,19.1-31.51,6.57-4.44,13.79-6,21-1.54a18.76,18.76,0,0,1,9.14,19.6c-1.19,7.54-4.43,14.77-6.8,22.12-.56,1.76-1.9,3.54-1.77,5.22,1.1,13.57-12.61,20.91-25.09,15.71C384.83,346.84,378.76,336.42,378.88,321.26Z" transform="translate(-87.26 -285.38)"/><path class="cls-2" d="M172.62,473.53c18.93,0,37.68-2.66,56.19-9.41l2,4.61c6.62,15.53,15,30.27,28,42.31a78.57,78.57,0,0,0,20.46,13.8,21.92,21.92,0,0,0,9.05,2.06c7.8,0,14.41-4.77,17.11-12.71a44.61,44.61,0,0,0,2.11-12.27c.75-15.63-2.93-30.78-8.75-45.28Q272.43,391,244.7,325.79a107.78,107.78,0,0,0-16-26.79A37.16,37.16,0,0,0,200,285.54a38.53,38.53,0,0,0-28.46,12.62,79.19,79.19,0,0,0-12.78,18.38A1596.55,1596.55,0,0,0,94.54,467.13a134.82,134.82,0,0,0-7.16,29.68c-1.17,9.27,6.05,15.61,15.68,15.61.61,0,1.24,0,1.87-.08,7.34-.61,11.39-5.23,14.07-10.47,4.72-9.23,8.8-18.72,12.92-28.18.88-2,1.74-3,3.86-3a10.16,10.16,0,0,1,1.36.11A250.81,250.81,0,0,0,172.62,473.53Zm14.65-126.21,30.87,89.84c-11.12-4-22.35-5.42-33.83-5.42-11.64,0-23.53,1.45-35.83,3.16C161.56,405.35,174.16,376.92,187.27,347.32Z" transform="translate(-87.26 -285.38)"/><path class="cls-2" d="M355.11,452.17c-.16-11.88-.66-31.1-1.17-48.73h-.15c-.82-29-1.47-58-2.58-87A80.5,80.5,0,0,0,347.82,298c-2-7-6.87-11.86-15.44-12.51-.81-.06-1.62-.1-2.4-.1-8.13,0-14.59,3.36-17.86,10.21a55.49,55.49,0,0,0-5.34,17.17c-2.91,25.72-5.82,51.46-7.55,77.26a430,430,0,0,0-1,48q3.29,8.13,6.5,16.15c6.44,16,9.45,30.73,9.25,44.82.49.64,1,1.28,1.54,1.92a50.75,50.75,0,0,0,15,12.46,17.69,17.69,0,0,0,8.08,2,15.59,15.59,0,0,0,14.91-11.28,34.57,34.57,0,0,0,1.88-10.58C355.35,479.77,355.23,466,355.11,452.17Z" transform="translate(-87.26 -285.38)"/><path class="cls-2" d="M449.69,503q3.4-3,6.52-6.26a115.43,115.43,0,0,0,10.91-13.38,109,109,0,0,0,8.78-14.73l.07-.13c2.63-5.09,4.67-11.21,3.77-16.41a8.58,8.58,0,0,0-3.88-5.94c-1.71-1.09-4.22-.94-6.84-.11-5.27,1.72-10.45,5.12-15.53,8.43s-10.18,6.95-15.51,10.31c-1.34.84-2.68,1.67-4.06,2.47a13.34,13.34,0,0,1-5.89,2.24,7.35,7.35,0,0,1-4.6-1.24,8.22,8.22,0,0,1-1.12-1,9.41,9.41,0,0,1-2.85-4.69,42,42,0,0,1-2.06-13.25c.43-11.23,1.93-22.43,2.31-33.66.31-9.44.45-19-.84-28.34-1.09-7.87-7.66-12.15-15.67-12.7-9.26-.63-15.82,4.28-21.49,10.68-9,10.23-14.29,22.48-17.54,35.54-5.48,22.1-5.73,44,4.81,64.88,12,23.76,36.09,34.78,60.25,27.38A72.19,72.19,0,0,0,449.69,503Z" transform="translate(-87.26 -285.38)"/><path class="cls-2" d="M669.49,413.87c-4.07-1.9-8.3-1.77-11.69,1.34a127.71,127.71,0,0,0-8.72,9.56c-5.18,5.81-10,12-15.6,17.35-7.83,7.42-16.61,13.68-27.47,16.08-7.67,1.7-12.86-.66-16.14-7.8a96.41,96.41,0,0,1-4.71-13.71c-3.17-11.14-5.06-22.77-9.39-33.43-9.94-24.49-32.68-30.18-52.79-13.19-8.1,6.84-14.58,15.65-21.41,23.89-3.58,4.31-6.31,9.32-10.08,15-.29-4.95-.11-8.78-.82-12.43-2-10.3-3.55-20.8-6.85-30.7-2.67-8-9.41-12.67-18.37-13-9.13-.33-16.22,3.66-19.58,11.86a81.87,81.87,0,0,0-2.85,8.43c-2.34,9.07-6.64,37.13-5.44,63.47,4.16-2.44,8.31-5,12.55-7.51,2.69-1.59,5.42-3.17,8.27-4.62a46.44,46.44,0,0,1,9.17-3.67,18.62,18.62,0,0,1,5.37-.64,10.76,10.76,0,0,1,5.68,1.85,13.39,13.39,0,0,1,5.57,9.36,23.78,23.78,0,0,1-1.14,10.06,41.74,41.74,0,0,1-4,8.88l.07-.13a111.89,111.89,0,0,1-9.83,14.75A118.7,118.7,0,0,1,457.47,498a98.37,98.37,0,0,1-9.21,7.73c8.13,12.4,24.18,13.57,35.46,2a107.36,107.36,0,0,0,12.87-16.9c9.78-15.13,19.18-30.5,28.75-45.76.84-1.33,1.79-2.59,2.32-3.36,4.07,10,7.21,20.2,12.13,29.43,16.22,30.4,47.58,40.31,77.71,24.43,26.37-13.91,43.9-36,55.37-63.2a29.16,29.16,0,0,0,1.79-8.58C675.06,419.49,673.59,415.79,669.49,413.87Z" transform="translate(-87.26 -285.38)"/><path class="cls-1" d="M722.73,471.13a2,2,0,0,1,2.2-1.46h0q15,0,30,0,15.49,0,31,0h0a2.09,2.09,0,0,1,2.26,1.57q2.22,5.19,4.48,10.34c5.21-.1,10.43-.17,15.67-.18h0c4.29,0,8.55.09,12.81.15q-32-66.27-64-132.54c-.26-.55-.94-1.3-1.36-1.3h0a2.51,2.51,0,0,0-1.59,1.3q-34.11,70.61-68.15,141.24,14.82-2.21,30-3.86C718.33,481.31,720.55,476.23,722.73,471.13Zm32.74-74.38c7.15,16.33,14.17,32.38,21.29,48.63H734.18C741.25,429.24,748.28,413.16,755.47,396.75Z" transform="translate(-87.26 -285.38)"/><path class="cls-1" d="M682.45,488.79l1.94-4,8.68-18H655.21a158.41,158.41,0,0,1-11.67,15.39,114,114,0,0,1-10.47,10.74h36.36q6.14-1.05,12.33-2A7.83,7.83,0,0,1,682.45,488.79Z" transform="translate(-87.26 -285.38)"/><path class="cls-1" d="M851.8,404.13c.45.38.68.56.9.76q15.12,14,30.23,28.09,32.24,30,64.49,60l2.67.43,1.18.22V349.71H924.76v88.94l-6.87-6.39L861,379.4Q844.42,364,827.8,348.52a10.36,10.36,0,0,0-2.54-1.24V481.6c8.91.19,17.75.53,26.54,1Z" transform="translate(-87.26 -285.38)"/><path class="cls-1" d="M1082,544.85c-5.65-1.48-11.16-3.29-16.81-4.66s-11.18-3-16.84-4.24l-8.44-2-8.48-1.8c-5.63-1.27-11.31-2.33-17-3.4-22.67-4.29-45.46-7.63-68.33-10.21a1262.07,1262.07,0,0,0-275.41,0c-22.86,2.58-45.65,5.92-68.32,10.2-5.66,1.07-11.34,2.13-17,3.4L576.93,534l-8.44,2c-5.66,1.24-11.23,2.77-16.85,4.24s-11.15,3.17-16.81,4.65q3.93-1.92,7.89-3.77c2.64-1.25,5.28-2.5,8-3.62,5.37-2.26,10.75-4.56,16.23-6.58,2.73-1,5.46-2.11,8.21-3.11l8.3-2.83c5.52-2,11.13-3.59,16.72-5.31a612.85,612.85,0,0,1,68.39-16,834.11,834.11,0,0,1,279.73,0,614.38,614.38,0,0,1,68.38,16c5.6,1.72,11.21,3.36,16.73,5.31l8.3,2.83c2.75,1,5.48,2.07,8.21,3.1,5.47,2,10.86,4.32,16.23,6.58,2.69,1.12,5.34,2.37,8,3.62S1079.36,543.57,1082,544.85Z" transform="translate(-87.26 -285.38)"/></svg>