<svg xmlns="http://www.w3.org/2000/svg" width="80.388" height="423.31" viewBox="0 0 80.388 423.31">
  <g id="path1" transform="translate(-57 -749.604)">
    <path id="Subtraction_9" data-name="Subtraction 9" d="M-394.857,76.31A32.8,32.8,0,0,1-427.62,43.547V-123.435l2.621,2.457V43.547a30.176,30.176,0,0,0,30.142,30.142,1.311,1.311,0,0,1,1.31,1.31A1.311,1.311,0,0,1-394.857,76.31ZM-427.62-159.773V-313.238A32.8,32.8,0,0,1-394.857-346h24.167a1.312,1.312,0,0,1,1.31,1.31,1.311,1.311,0,0,1-1.31,1.309h-24.167A30.176,30.176,0,0,0-425-313.238V-162.23l-2.619,2.455Z" transform="translate(506.268 1096.104)" fill="#494f55" stroke="rgba(0,0,0,0)" stroke-miterlimit="10" stroke-width="1"/>
    <path id="Path_53466" data-name="Path 53466" d="M526,1317.5l-21.25-19.558L526,1276" transform="translate(-446.25 -342.5)" fill="none" stroke="#494f55" stroke-linecap="round" stroke-linejoin="round" stroke-width="3"/>
  </g>
</svg>
