<svg xmlns="http://www.w3.org/2000/svg" width="527.805" height="422.31" viewBox="0 0 527.805 422.31">
    <path data-name="Path 28882" d="M2567.7 752.542h217.54a32.8 32.8 0 0 0 32.76-32.763V550.343a1.313 1.313 0 0 0-.382-.925l-17.339-17.394 17.337-17.338a1.313 1.313 0 0 0 .384-.927V362.995a30.176 30.176 0 0 1 30.141-30.142h244.737a1.31 1.31 0 1 0 0-2.621h-244.733a32.8 32.8 0 0 0-32.763 32.763v150.221L2797.5 531.1a1.311 1.311 0 0 0 0 1.852l17.88 17.938v168.889a30.176 30.176 0 0 1-30.142 30.142H2567.7a1.311 1.311 0 0 0 0 2.621z" transform="translate(-2566.387 -330.232)" style="fill:#494f55"/>
</svg>
