<svg xmlns="http://www.w3.org/2000/svg" width="102.805" height="422.31" viewBox="0 0 102.805 422.31">
  <path id="Path_53465" data-name="Path 53465" d="M2765.7,752.542h19.543A32.8,32.8,0,0,0,2818,719.779V550.343a1.313,1.313,0,0,0-.382-.925l-17.339-17.394,17.337-17.338a1.313,1.313,0,0,0,.384-.927V362.995a30.176,30.176,0,0,1,30.141-30.142h17.737a1.31,1.31,0,1,0,0-2.621h-17.737a32.8,32.8,0,0,0-32.763,32.763V513.216L2797.5,531.1a1.311,1.311,0,0,0,0,1.852l17.88,17.938V719.779a30.176,30.176,0,0,1-30.142,30.142H2765.7a1.311,1.311,0,0,0,0,2.621Z" transform="translate(-2764.387 -330.232)" fill="#494f55"/>
</svg>
